<?xml version="1.0" standalone="no"?>
<!DOCTYPE svg PUBLIC "-//W3C//DTD SVG 20010904//EN"
 "http://www.w3.org/TR/2001/REC-SVG-20010904/DTD/svg10.dtd">
<svg version="1.0" xmlns="http://www.w3.org/2000/svg"
 width="2635.000000pt" height="2635.000000pt" viewBox="0 0 2635.000000 2635.000000"
 preserveAspectRatio="xMidYMid meet">
<metadata>
Created by potrace 1.11, written by Peter Selinger 2001-2013
</metadata>
<g transform="translate(0.000000,2635.000000) scale(0.100000,-0.100000)"
fill="#000000" stroke="none">
<path d="M1824 25513 c8 -91 14 -160 21 -223 3 -25 7 -85 10 -135 3 -49 7
-101 10 -115 4 -22 9 -94 20 -300 2 -36 6 -105 10 -155 6 -103 12 -204 20
-390 23 -486 29 -799 29 -1495 0 -590 -4 -857 -19 -1225 -8 -213 -16 -385 -20
-445 -2 -36 -7 -112 -10 -170 -7 -118 -12 -200 -20 -310 -3 -41 -7 -111 -10
-155 -3 -44 -8 -102 -10 -130 -3 -27 -7 -84 -11 -125 -3 -41 -7 -93 -9 -115
-2 -22 -6 -71 -10 -110 -3 -38 -8 -86 -10 -105 -2 -19 -7 -69 -10 -110 -4 -41
-8 -86 -10 -100 -2 -14 -6 -54 -10 -90 -3 -36 -7 -76 -10 -90 -2 -14 -7 -52
-10 -85 -3 -33 -8 -77 -10 -97 -3 -21 -7 -55 -10 -75 -2 -21 -7 -65 -11 -98
-3 -33 -7 -67 -9 -75 -1 -8 -6 -40 -10 -70 -3 -30 -8 -66 -10 -80 -2 -14 -6
-45 -10 -70 -3 -25 -8 -56 -10 -70 -2 -14 -7 -50 -10 -80 -3 -30 -8 -62 -10
-70 -2 -8 -7 -35 -10 -60 -3 -25 -8 -56 -10 -70 -2 -14 -11 -72 -20 -130 -9
-58 -18 -116 -20 -130 -15 -88 -56 -330 -60 -355 -10 -52 -91 -474 -100 -515
-7 -31 -13 -61 -25 -120 -21 -106 -83 -379 -125 -550 -25 -102 -47 -192 -49
-201 -11 -46 -79 -300 -91 -344 -8 -27 -31 -106 -51 -175 -20 -69 -44 -154
-55 -190 -10 -36 -27 -92 -39 -125 -11 -33 -21 -61 -21 -62 0 -3 0 -4 -39
-128 -39 -121 -148 -442 -159 -470 -5 -11 -17 -42 -26 -70 -67 -192 -279 -707
-376 -914 -27 -57 -49 -105 -49 -108 0 -13 -276 -553 -322 -630 -21 -35 -20
-43 8 -181 14 -68 47 -210 59 -252 3 -8 9 -35 15 -60 16 -66 108 -384 121
-417 6 -15 12 -35 14 -43 4 -20 94 -289 105 -315 5 -11 30 -78 55 -150 51
-139 173 -447 211 -532 13 -28 24 -54 24 -57 0 -3 12 -31 26 -63 32 -72 102
-226 144 -318 75 -165 302 -614 398 -787 18 -32 45 -82 61 -110 16 -29 55 -98
86 -153 32 -55 66 -116 77 -135 21 -36 94 -158 133 -220 12 -19 59 -96 105
-170 102 -165 392 -603 410 -620 3 -3 23 -32 45 -65 103 -155 475 -651 646
-862 99 -122 268 -325 292 -353 13 -14 47 -54 77 -90 67 -79 78 -91 270 -305
408 -452 1026 -1071 1325 -1326 22 -19 49 -44 60 -55 17 -18 127 -115 225
-200 46 -39 126 -108 186 -160 90 -78 447 -371 554 -454 52 -41 97 -77 100
-80 13 -14 431 -328 580 -436 284 -206 640 -453 721 -501 16 -10 29 -21 29
-25 0 -4 4 -8 10 -8 5 0 62 -35 127 -78 115 -77 191 -126 225 -147 9 -5 99
-62 199 -125 100 -63 194 -122 208 -130 14 -9 137 -82 273 -163 135 -81 251
-147 257 -147 6 0 11 -3 11 -7 0 -5 10 -13 23 -19 12 -6 95 -52 184 -102 89
-50 192 -108 230 -128 37 -19 73 -39 78 -43 6 -5 60 -34 120 -66 61 -32 137
-72 170 -90 81 -44 381 -198 480 -247 44 -22 87 -44 95 -49 8 -5 22 -12 30
-16 8 -3 105 -50 215 -104 110 -53 238 -115 285 -137 78 -36 118 -55 285 -132
53 -24 276 -124 505 -225 508 -225 1313 -543 1915 -758 l70 -25 125 46 c69 25
148 53 175 62 371 130 1614 631 1788 720 20 11 37 17 37 14 0 -4 6 -2 13 4 6
5 75 38 152 72 77 34 168 75 202 91 144 66 327 152 458 214 169 80 798 397
865 435 8 5 133 72 276 149 216 116 437 239 632 352 17 11 49 29 70 40 162 92
488 291 777 474 94 59 182 115 197 124 16 9 28 19 28 24 0 4 5 7 10 7 6 0 120
74 253 163 235 159 281 191 378 259 25 18 90 64 145 103 54 38 128 91 164 118
36 26 76 57 90 67 209 154 307 228 475 359 110 85 202 157 205 160 3 4 61 51
130 106 131 105 513 428 590 499 25 22 83 75 130 116 46 41 91 82 100 90 9 8
63 58 120 110 316 289 751 724 1062 1062 182 198 454 509 563 643 22 27 54 65
71 84 30 36 172 212 229 285 17 21 35 44 40 50 11 13 100 129 199 261 37 50
73 97 80 105 52 67 290 405 407 580 123 183 172 259 288 440 9 14 20 33 26 42
5 10 71 120 147 245 75 126 170 289 210 363 41 74 90 162 108 195 55 100 293
573 347 690 28 61 65 142 83 180 159 346 342 815 461 1180 34 105 65 199 69
210 16 40 138 488 154 567 3 13 15 73 27 133 l22 110 -73 135 c-246 455 -495
1013 -697 1565 -44 120 -216 623 -224 653 -1 4 -3 12 -4 17 -21 68 -37 124
-58 195 -49 162 -106 360 -112 389 -3 9 -29 111 -60 226 -49 187 -120 479
-131 544 -3 12 -12 53 -20 90 -9 36 -18 75 -20 86 -2 11 -6 29 -8 40 -15 68
-58 273 -60 285 -2 8 -6 29 -9 45 -7 30 -10 45 -27 143 -6 28 -14 76 -20 105
-5 28 -12 66 -15 82 -5 30 -16 89 -21 113 -1 8 -8 46 -14 85 -13 76 -17 97
-25 137 -2 14 -7 43 -10 65 -3 23 -7 50 -9 60 -2 11 -7 43 -10 70 -4 28 -9 57
-11 65 -2 8 -7 38 -10 65 -3 28 -7 57 -10 65 -2 8 -6 38 -10 65 -3 28 -13 97
-21 155 -9 58 -17 123 -20 145 -2 22 -6 51 -8 65 -3 14 -8 54 -11 90 -4 36 -8
72 -10 80 -2 8 -7 42 -10 75 -3 33 -8 71 -10 85 -2 14 -6 52 -10 85 -12 117
-20 189 -30 275 -3 19 -7 67 -10 105 -3 39 -7 88 -10 110 -7 58 -14 140 -20
220 -3 39 -8 91 -10 118 -6 59 -14 158 -20 261 -3 43 -7 99 -10 125 -2 25 -7
93 -10 151 -3 58 -7 135 -10 172 -3 37 -7 116 -10 175 -3 59 -7 164 -11 233
-34 757 -39 2042 -9 2640 2 47 7 153 10 235 3 83 8 182 10 220 2 39 7 122 10
185 6 113 10 182 20 310 2 36 7 99 10 140 11 156 16 216 21 265 2 28 6 73 8
100 11 126 19 201 23 208 2 4 -5109 7 -11357 7 l-11362 0 6 -77z m20401 -2837
c0 -633 5 -947 20 -1291 2 -44 6 -150 9 -235 4 -85 8 -184 11 -220 4 -59 10
-163 20 -349 3 -66 12 -189 20 -296 3 -33 7 -90 10 -127 3 -38 7 -98 10 -135
2 -38 6 -88 9 -113 8 -75 18 -181 30 -345 4 -49 9 -97 11 -105 2 -8 7 -49 10
-90 3 -41 8 -86 10 -100 3 -14 7 -55 10 -90 3 -36 9 -99 15 -140 5 -41 11 -96
14 -122 12 -97 18 -144 21 -167 3 -14 7 -51 10 -84 4 -32 8 -68 10 -79 3 -11
7 -46 10 -77 4 -31 8 -63 10 -71 2 -8 7 -42 10 -75 4 -33 8 -67 10 -75 2 -8 7
-35 10 -60 10 -71 32 -214 55 -360 12 -74 23 -144 25 -155 2 -17 39 -230 49
-290 20 -113 73 -384 101 -525 3 -14 8 -41 11 -60 3 -19 8 -38 10 -41 2 -4 6
-24 10 -45 3 -22 10 -57 16 -79 5 -22 12 -49 14 -60 2 -11 8 -42 14 -70 6 -27
12 -59 14 -70 3 -11 12 -51 21 -90 9 -38 19 -79 21 -90 2 -11 11 -49 20 -84 9
-36 17 -72 19 -80 8 -44 130 -519 146 -567 5 -17 11 -40 13 -50 2 -10 29 -104
59 -209 247 -854 546 -1661 874 -2363 15 -30 14 -38 -14 -125 l-29 -92 -74
105 c-41 58 -77 107 -81 110 -3 3 -17 21 -30 42 -34 52 -110 157 -389 543
-135 187 -257 356 -270 375 -14 19 -27 37 -30 40 -8 8 -145 194 -155 210 -7
11 -1 10 20 -4 17 -11 48 -31 70 -45 22 -14 42 -28 45 -31 3 -3 21 -17 40 -30
60 -41 193 -149 249 -203 l54 -52 -6 38 c-6 40 -51 119 -127 227 -152 214
-175 254 -185 311 -16 95 -182 263 -421 427 -223 152 -288 201 -249 187 69
-25 166 -54 200 -58 22 -4 54 -9 70 -11 90 -16 485 -34 485 -22 0 4 -13 27
-30 51 -61 88 -107 198 -199 472 -137 410 -226 511 -716 811 -129 78 -196 129
-268 199 -51 51 -106 137 -95 149 7 6 104 6 157 0 122 -15 293 -81 458 -178
45 -26 84 -48 87 -48 3 0 -4 26 -16 57 -129 347 -528 721 -988 929 -198 90
-535 195 -780 243 -97 20 -104 21 -150 27 -25 3 -52 7 -60 9 -8 2 -42 7 -75
11 -63 6 -85 13 -44 15 13 0 33 2 44 4 11 2 43 7 70 10 28 3 61 8 75 10 23 4
86 11 185 20 252 23 606 23 775 0 158 -21 291 -58 395 -109 l90 -44 -55 50
c-114 103 -306 228 -480 310 -120 56 -360 143 -455 163 -11 2 -56 13 -100 24
-44 10 -98 22 -120 25 -22 3 -51 8 -64 10 -37 8 -168 25 -246 32 -202 19 -736
4 -825 -22 -26 -7 22 26 80 56 92 47 219 85 415 126 11 2 40 7 65 10 25 3 55
7 66 9 12 2 48 7 80 10 33 4 68 9 78 11 11 2 56 6 100 9 45 3 90 8 101 10 11
2 38 4 60 5 28 0 35 3 25 9 -44 25 -591 164 -795 202 -38 7 -72 14 -75 14 -3
1 -30 5 -60 10 -30 5 -57 9 -60 10 -3 1 -30 5 -60 9 -30 5 -64 10 -75 12 -18
3 -41 7 -135 19 -90 12 -218 25 -290 31 -25 1 -88 6 -140 11 -194 15 -715 8
-900 -12 -59 -7 -134 -16 -160 -20 -14 -2 -47 -7 -75 -11 -27 -3 -52 -7 -55
-9 -3 -2 -30 -6 -60 -10 -30 -4 -58 -9 -61 -11 -3 -2 -21 -6 -40 -9 -272 -46
-740 -218 -954 -350 -22 -14 -47 -28 -55 -32 -23 -10 -158 -101 -220 -148 -75
-56 -140 -93 -208 -116 -55 -20 -70 -24 -122 -34 -37 -7 -167 -8 -179 -1 -5 4
-12 2 -15 -3 -5 -8 41 -206 110 -476 8 -33 17 -69 19 -80 3 -11 12 -49 21 -84
9 -36 17 -72 19 -82 2 -9 8 -34 14 -55 6 -22 11 -42 11 -47 0 -4 -50 91 -111
210 -61 120 -146 286 -189 368 -42 83 -115 223 -161 313 -49 96 -86 157 -90
150 -7 -13 -23 -109 -34 -203 -3 -27 -8 -59 -10 -70 -16 -81 -23 -402 -11
-540 15 -178 67 -359 129 -449 20 -28 20 -28 0 -18 -28 15 -137 135 -200 220
-57 77 -153 230 -153 244 0 5 -19 -1 -42 -13 -41 -21 -134 -56 -173 -65 -22
-5 -142 -29 -190 -38 -78 -15 -198 -21 -392 -21 -116 0 -211 -1 -210 -2 1 -1
76 -45 167 -98 91 -53 167 -98 169 -101 11 -11 -166 -214 -272 -311 -34 -31
-67 -62 -73 -68 -145 -132 -400 -281 -585 -342 -75 -25 -81 -28 -54 -34 37 -7
383 -3 445 5 25 4 59 8 75 11 17 2 53 7 80 10 28 4 66 10 85 15 19 5 46 11 60
13 61 11 203 58 259 85 34 16 61 29 61 27 0 -1 -6 -40 -14 -86 -8 -46 -17
-102 -21 -124 -3 -22 -8 -51 -10 -65 -2 -14 -14 -86 -25 -160 -12 -74 -23
-144 -25 -155 -3 -11 -7 -36 -9 -55 -3 -19 -12 -78 -20 -130 -9 -52 -18 -113
-21 -135 -3 -22 -8 -49 -10 -61 -3 -12 -7 -39 -10 -60 -3 -21 -10 -64 -15 -94
-5 -30 -12 -71 -15 -90 -3 -19 -7 -46 -10 -60 -2 -14 -7 -43 -10 -65 -3 -23
-7 -50 -9 -60 -7 -39 -17 -101 -21 -140 -3 -22 -7 -47 -10 -55 -2 -8 -7 -33
-10 -55 -3 -23 -7 -52 -10 -65 -3 -14 -14 -86 -25 -160 -25 -160 -29 -187 -35
-220 -3 -14 -7 -38 -9 -55 -3 -16 -17 -100 -30 -186 -14 -86 -28 -174 -31
-195 -2 -22 -7 -50 -9 -64 -8 -44 -25 -144 -30 -182 -4 -21 -8 -55 -12 -75 -3
-21 -9 -63 -14 -93 -5 -30 -12 -73 -15 -95 -3 -22 -7 -51 -10 -65 -21 -139
-33 -223 -41 -288 -2 -26 -7 -58 -9 -72 -6 -33 -17 -122 -30 -260 -2 -25 -7
-67 -9 -95 -7 -65 -19 -250 -31 -470 -3 -55 -7 -125 -10 -155 -3 -46 -12 -199
-19 -325 -2 -25 6 -36 49 -67 27 -21 55 -41 60 -46 24 -19 197 -123 275 -164
96 -51 258 -118 340 -141 188 -53 381 -66 511 -33 178 46 301 158 373 338 54
136 70 278 50 436 -7 53 -15 129 -19 167 -3 39 -8 77 -10 85 -3 8 -7 44 -10
80 -3 36 -8 78 -10 95 -2 16 -7 55 -10 85 -3 30 -7 69 -10 86 -4 30 -2 32 93
74 313 141 724 368 1016 562 101 67 310 220 326 237 3 3 28 24 55 45 87 69
309 298 374 386 60 81 128 203 157 280 19 53 17 10 -6 -111 -26 -141 -26 -138
-55 -237 -31 -103 -69 -210 -97 -272 -12 -25 -27 -61 -35 -80 -27 -62 -135
-253 -193 -340 -102 -151 -224 -303 -318 -394 -46 -45 -56 -62 -81 -141 -83
-254 -245 -685 -333 -885 -256 -577 -481 -940 -695 -1118 -26 -22 -90 -68
-140 -101 -382 -253 -706 -636 -836 -986 -61 -166 -76 -272 -72 -540 3 -177 8
-269 20 -355 2 -19 7 -55 10 -80 3 -25 8 -56 10 -70 2 -14 7 -45 10 -70 3 -25
10 -70 16 -100 6 -30 12 -64 14 -75 1 -11 3 -24 4 -28 1 -12 39 -5 244 42 98
22 188 43 200 45 34 7 597 135 642 146 34 8 419 95 465 105 8 2 57 13 107 24
96 22 133 26 98 11 -11 -4 -33 -14 -50 -21 -16 -7 -32 -13 -35 -14 -44 -14
-415 -199 -655 -326 -236 -125 -731 -368 -843 -415 l-92 -38 6 -36 c30 -174
393 -1084 646 -1620 27 -58 70 -150 96 -205 134 -288 490 -980 544 -1057 10
-14 18 -29 18 -32 0 -2 16 -33 36 -66 20 -34 32 -66 28 -70 -10 -9 -353 -197
-494 -270 -172 -90 -426 -220 -455 -234 -90 -42 -121 -58 -135 -66 -24 -16
-523 -252 -675 -320 -27 -12 -79 -36 -115 -52 -36 -17 -101 -46 -145 -65 -111
-49 -161 -71 -223 -99 -29 -13 -55 -24 -57 -24 -3 0 -27 -10 -53 -21 -131 -59
-299 -129 -616 -255 -170 -68 -310 -124 -310 -124 -1 0 2 20278 3 20301 1 15
373 16 4524 16 l4522 0 0 -731z m-6396 -7213 c-11 -57 -64 -171 -116 -251 -45
-68 -123 -173 -140 -187 -6 -5 -28 -30 -48 -55 -68 -83 -256 -272 -233 -234 3
5 9 68 13 139 5 72 9 141 10 155 2 14 3 46 4 73 l1 47 43 -1 c182 -6 346 108
441 304 16 31 29 57 31 57 1 0 -2 -21 -6 -47z"/>
</g>
</svg>
