<?xml version="1.0" encoding="utf-8"?>
<!-- Generator: Adobe Illustrator 18.1.1, SVG Export Plug-In . SVG Version: 6.00 Build 0)  -->
<svg version="1.1" id="design" xmlns="http://www.w3.org/2000/svg" xmlns:xlink="http://www.w3.org/1999/xlink" x="0px" y="0px"
	 viewBox="0 0 1024 512" enable-background="new 0 0 1024 512" xml:space="preserve">
<g id="LABS">
	<path fill="#FFFFFF" d="M960.3,357.7l4.7-5.6c3.3,2.7,6.7,4.4,10.8,4.4c3.3,0,5.2-1.3,5.2-3.4V353c0-2-1.2-3-7.3-4.6
		c-7.3-1.9-12-3.9-12-11.1v-0.1c0-6.6,5.3-10.9,12.7-10.9c5.3,0,9.8,1.7,13.4,4.6l-4.1,6c-3.2-2.2-6.4-3.6-9.4-3.6s-4.7,1.4-4.7,3.2
		v0.1c0,2.4,1.6,3.2,7.8,4.8c7.3,1.9,11.5,4.5,11.5,10.9v0.1c0,7.2-5.5,11.2-13.3,11.2C970.2,363.5,964.7,361.6,960.3,357.7z"/>
	<path fill="#FFFFFF" d="M927,326.8h16.8c4.1,0,7.4,1.1,9.5,3.2c1.7,1.7,2.5,3.7,2.5,6.1v0.1c0,4.1-2.2,6.4-4.8,7.8
		c4.2,1.6,6.8,4,6.8,8.9v0.1c0,6.6-5.4,9.9-13.5,9.9H927V326.8L927,326.8z M942.1,341.4c3.5,0,5.7-1.1,5.7-3.8v-0.1
		c0-2.4-1.9-3.7-5.2-3.7h-7.9v7.6H942.1L942.1,341.4z M944.2,356c3.5,0,5.6-1.2,5.6-3.9V352c0-2.4-1.8-3.9-5.9-3.9h-9.2v8L944.2,356
		L944.2,356z"/>
	<path fill="#FFFFFF" d="M900.2,326.5h7.3L923,363h-8.3l-3.3-8.1h-15.3l-3.3,8.1h-8.1L900.2,326.5z M908.5,347.8l-4.8-11.7
		l-4.8,11.7H908.5z"/>
	<path fill="#FFFFFF" d="M857.3,326.8h8v28.9h18v7.2h-26V326.8z"/>
</g>
<g id="GreenBrick">
	<g id="Brick">
		<path fill="#FFFFFF" d="M910.8,228.1c0-2.2-1.2-3.2-3.2-3.2h-5.8v-15.6h17.5c6.8,0,9.8,1.6,9.8,8.4v46.5h5.5
			c2.3,0,5.3-0.4,6.9-2.7l15-23.2H977L958.4,266c-3.2,4.6-5.5,5.8-5.5,5.8v0.3c0,0,2.6,1,5.2,5.8l8.4,15.9c1.2,2.2,2.6,2.7,6.1,2.7
			h4.9v15.4h-13.6c-6.2,0-8.7-1-11.6-6.4L940,282.3c-1.4-2.6-4.5-2.7-6.8-2.7h-4v32.2h-18.3L910.8,228.1L910.8,228.1z"/>
		<path fill="#FFFFFF" d="M872.7,236.4c9.5,0,26.7,3.9,26.7,16.6v8.7h-16.2v-4c0-4-6.1-5.8-10.5-5.8c-12.7,0-21.8,9.7-21.8,23
			c0,15,11.1,22.7,23,22.7c12.6,0,21.8-10,21.8-10l7.7,12.7c0,0-11,13.3-31,13.3c-24.3,0-39.9-17.2-39.9-38.6
			C832.4,254.2,847.4,236.4,872.7,236.4z"/>
		<path fill="#FFFFFF" d="M803.9,256.9c0-2.2-1.2-3.2-3.2-3.2h-5.8v-15.6h17.5c6.8,0,9.7,3,9.7,9.8v45.2c0,2,1.2,3.2,3.2,3.2h5.8
			v15.4h-17.5c-6.8,0-9.7-2.9-9.7-9.8V256.9z M804.7,209.3h15.9v16.9h-15.9V209.3z"/>
		<path fill="#FFFFFF" d="M748,256.9c0-2.2-1.2-3.2-3.2-3.2H739v-15.6h16.8c6.5,0,9.8,2.7,9.8,9v4.3c0,2.7-0.3,4.6-0.3,4.6h0.3
			c3.3-10.5,12.1-18.9,23.4-18.9c1.6,0,3.3,0.3,3.3,0.3v18c0,0-1.9-0.3-4.5-0.3c-7.8,0-16.8,4.5-20.1,15.4c-1,3.6-1.6,7.7-1.6,12
			v29.2H748V256.9z"/>
		<path fill="#FFFFFF" d="M665.1,225.3h-9.4v-16H700c18.5,0,31.8,9.5,31.8,26.4c0,11.4-6.2,18.8-12.4,21.9v0.3
			c11.1,3.3,16.5,13.7,16.5,24.1c0,20.5-16.3,29.7-35.4,29.7h-25.6c-6.8,0-9.8-2.9-9.8-9.8V225.3z M700.2,251.2
			c7.9,0,12.4-5.8,12.4-13.1s-4.3-12.7-12.7-12.7H684v25.8H700.2z M687.2,295.8h14.7c9.2,0,14.4-6.2,14.4-14.9
			c0-8.5-5.3-14.7-14.4-14.7H684v26.4C684,294.6,685.1,295.8,687.2,295.8z"/>
	</g>
	<g id="Green">
		<path fill="#FFFFFF" d="M583.3,250.9c0-2-1.2-3.2-3.2-3.2H574v-8.5h10.1c6.1,0,8.8,2.6,8.8,8.1v3.3c0,2.9-0.3,5.2-0.3,5.2h0.3
			c2.6-6.6,11.8-18.3,28.9-18.3c18,0,24.4,10.3,24.4,28.2v34.5c0,2.2,1.2,3.2,3.2,3.2h6.1v8.5h-10.3c-6.2,0-8.8-2.6-8.8-8.8v-34.8
			c0-11.4-1.7-21.5-15.7-21.5c-12.4,0-23.1,8.5-26.4,20.5c-0.9,3-1.2,6.4-1.2,9.8v34.8h-9.8V250.9L583.3,250.9z"/>
		<path fill="#FFFFFF" d="M539.9,237.4c20.1,0,30.5,15.4,30.5,33.5c0,1.7-0.3,4.9-0.3,4.9h-55.7c0.3,18.3,13.1,28.9,28.2,28.9
			c13.3,0,21.8-9,21.8-9l4.8,7.4c0,0-10.5,10.4-27,10.4c-21.5,0-38-15.6-38-38C504.1,251.7,520.5,237.4,539.9,237.4z M560.3,268
			c-0.6-15-9.8-22.4-20.5-22.4c-12,0-22.5,7.8-25,22.4H560.3z"/>
		<path fill="#FFFFFF" d="M466.8,237.4c20.1,0,30.5,15.4,30.5,33.5c0,1.7-0.3,4.9-0.3,4.9h-55.7c0.3,18.3,13.1,28.9,28.2,28.9
			c13.3,0,21.8-9,21.8-9l4.8,7.4c0,0-10.5,10.4-27,10.4c-21.5,0-38-15.6-38-38C431,251.7,447.3,237.4,466.8,237.4z M487.2,268
			c-0.6-15-9.8-22.4-20.5-22.4c-12,0-22.5,7.8-25,22.4H487.2z"/>
		<path fill="#FFFFFF" d="M394.4,250.9c0-2-1.2-3.2-3.2-3.2h-6.1v-8.5h10.1c6.1,0,8.8,2.5,8.8,8.2v4.9c0,3-0.3,5.5-0.3,5.5h0.3
			c3.5-11,11.6-19.3,23-19.3c2,0,3.9,0.4,3.9,0.4v9.7c0,0-1.7-0.3-3.6-0.3c-10.3,0-17.9,8.1-21.1,18.8c-1.4,4.6-2,9.5-2,14.2v30.6
			h-9.8L394.4,250.9L394.4,250.9z"/>
		<path fill="#FFFFFF" d="M339,208.6c23.5,0,35.5,12.4,35.5,12.4l-5.9,7.5c0,0-11.3-10.4-29.5-10.4c-22.8,0-40.3,18.3-40.3,42.7
			c0,25,17.2,43.2,40.1,43.2c20.1,0,32.1-14.9,32.1-14.9v-12.6c0-2.2-1.2-3.2-3.2-3.2h-6.2v-9h10.1c6.2,0,8.8,2.6,8.8,8.8v38.6h-9.2
			V304c0-2.2,0.1-4.3,0.1-4.3h-0.3c0,0-11.8,13.7-33.2,13.7c-27.7,0-49.7-22.2-49.7-52.7C288.3,231.7,310.3,208.6,339,208.6z"/>
	</g>
</g>
<g id="flask_bricks">
	<g id="bricks">
		<g>
			<polygon fill="#99CC33" points="89,287.3 87.8,287.3 62.1,287.3 62.1,323.4 79.5,323.4 102.6,287.3 			"/>
			<polygon fill="#99CC33" points="116,241.7 106.5,241.7 89,241.7 89,277.8 103.9,277.8 106.5,277.8 129.6,241.7 			"/>
			<polygon fill="#99CC33" points="89,232.2 106.5,232.2 106.5,196.1 62.1,196.1 62.1,232.2 87.8,232.2 			"/>
			<polygon fill="#99CC33" points="35.1,241.7 35.1,277.8 60.8,277.8 79.5,277.8 79.5,241.7 52.6,241.7 			"/>
			<polygon fill="#99CC33" points="131.3,232.2 131.3,196.1 116,196.1 116,232.2 130.9,232.2 			"/>
		</g>
		<g>
			<polygon fill="#99CC33" points="178.3,196.1 163,196.1 163,232.2 163.4,232.2 178.3,232.2 			"/>
			<polygon fill="#99CC33" points="232.3,196.1 187.8,196.1 187.8,232.2 205.3,232.2 206.5,232.2 232.3,232.2 			"/>
			<polygon fill="#99CC33" points="205.3,277.8 205.3,241.7 187.8,241.7 178.3,241.7 164.7,241.7 187.8,277.8 190.4,277.8 			"/>
			<polygon fill="#99CC33" points="259.3,277.8 259.3,241.7 241.8,241.7 214.8,241.7 214.8,277.8 233.5,277.8 			"/>
			<polygon fill="#99CC33" points="232.3,323.4 232.3,287.3 206.5,287.3 205.3,287.3 191.7,287.3 214.8,323.4 			"/>
		</g>
	</g>
	<g id="flask">
		<path fill="#99CC33" d="M205.5,328.2l-24.3-39c-7.7,2.6-20.3,4.4-34.1-3.5c-11-6.3-21.3-6.4-28.9-4.9
			c-14.7,23.7-29.5,47.5-29.5,47.5h116.8V328.2z"/>
		<circle fill="#99CC33" cx="157.7" cy="272.5" r="9.2"/>
		<circle fill="#99CC33" cx="148.8" cy="183.2" r="7.2"/>
		<circle fill="#99CC33" cx="127.8" cy="162.3" r="13.8"/>
	</g>
</g>
</svg>
